PathFileType	4	(X/Y/Z)	output.trc
DataRate	CameraRate	NumFrames	NumMarkers	Units	OrigDataRate	OrigDataStartFrame	OrigNumFrames
50	50	6	18	mm	50	227	1
Frame#	Time	K4ABT_JOINT_PELVIS			K4ABT_JOINT_SPINE_NAVEL			K4ABT_JOINT_SPINE_CHEST			K4ABT_JOINT_NECK			K4ABT_JOINT_CLAVICLE_LEFT			K4ABT_JOINT_SHOULDER_LEFT			K4ABT_JOINT_ELBOW_LEFT			K4ABT_JOINT_WRIST_LEFT			K4ABT_JOINT_HAND_LEFT			K4ABT_JOINT_HANDTIP_LEFT			K4ABT_JOINT_THUMB_LEFT			K4ABT_JOINT_CLAVICLE_RIGHT			K4ABT_JOINT_SHOULDER_RIGHT			K4ABT_JOINT_ELBOW_RIGHT			K4ABT_JOINT_WRIST_RIGHT			K4ABT_JOINT_HAND_RIGHT			K4ABT_JOINT_HANDTIP_RIGHT			K4ABT_JOINT_THUMB_RIGHT		
		X1	Y1	Z1	X2	Y2	Z2	X3	Y3	Z3	X4	Y4	Z4	X5	Y5	Z5	X6	Y6	Z6	X7	Y7	Z7	X8	Y8	Z8	X9	Y9	Z9	X10	Y10	Z10	X11	Y11	Z11	X12	Y12	Z12	X13	Y13	Z13	X14	Y14	Z14	X15	Y15	Z15	X16	Y16	Z16	X17	Y17	Z17	X18	Y18	Z18
226	7833555.000000	129.596893	-184.514114	2095.166260	145.864243	-365.182220	2109.453857	159.588730	-510.001068	2110.008545	164.535004	-731.263062	2117.118652	197.988281	-694.333984	2113.083008	336.196472	-650.900696	2096.651367	426.954529	-387.292847	2055.266602	312.774231	-397.320068	1848.331421	250.186768	-429.453613	1779.805542	175.736069	-462.528839	1705.584106	209.643936	-433.177856	1783.606812	129.802490	-694.997314	2120.917969	-0.916645	-665.212952	2124.987061	-106.383492	-416.772430	2223.104980	-127.840889	-216.555206	2093.343018	-122.626823	-176.594162	1995.576782	-157.525101	-220.694550	2088.161377	-116.157204	-149.628555	1994.061279
227	7866888.000000	136.203735	-184.823685	2104.649902	152.683853	-366.564270	2114.560791	165.278137	-512.103027	2112.068359	166.935806	-733.942444	2127.737061	200.720627	-697.744873	2119.409180	339.510071	-665.580627	2085.543213	448.451538	-413.697723	2016.111328	283.603729	-469.891693	1854.504028	275.268494	-442.865356	1760.005005	190.817749	-514.207214	1754.490479	193.978165	-485.993988	1748.103760	133.138245	-696.679260	2132.967773	1.207858	-672.312012	2145.182373	-109.193001	-416.007690	2218.083008	-133.167053	-238.611481	2057.323730	-129.146667	-215.805115	1953.671021	-162.994476	-243.897781	2053.182129	-123.392654	-206.800125	1944.205811
228	7900222.000000	148.813507	-192.240051	2104.787842	158.484756	-375.445251	2106.972900	166.578201	-521.838501	2111.208984	156.205582	-743.827698	2132.739990	191.984573	-709.629944	2123.187012	331.528992	-691.916016	2080.450928	432.995361	-444.399048	1984.509033	274.420532	-508.029816	1818.078369	268.727905	-478.621887	1723.689209	182.309753	-538.840149	1688.275635	169.703964	-528.523560	1737.803345	124.417076	-704.490723	2137.257812	-8.491076	-680.266479	2143.590332	-111.535721	-420.267517	2218.637939	-115.844582	-299.858612	2009.289795	-126.375420	-299.818512	1903.185547	-146.242279	-304.420624	2010.492065	-132.356964	-194.802444	1932.158081
229	7933555.000000	149.715729	-200.598755	2099.255371	161.416107	-383.787811	2107.003906	170.240128	-530.333984	2111.479736	156.475876	-752.370483	2133.797852	191.890961	-719.033386	2120.296143	317.887634	-700.159424	2046.533325	430.010620	-456.321838	1951.880859	278.421509	-509.666626	1775.172607	303.077423	-546.966125	1686.660400	206.738968	-563.894409	1633.605591	212.492767	-533.932007	1655.025879	126.408386	-712.180542	2141.930420	-5.694717	-684.387817	2152.802734	-122.997383	-424.766296	2206.817139	-138.466812	-307.320587	1995.934692	-124.140495	-336.355133	1894.189575	-164.436844	-323.913239	1995.109619	-115.415924	-351.772552	1893.138306
230	7966888.000000	148.819550	-216.792755	2113.996094	160.110580	-401.325928	2118.013672	168.051483	-548.948120	2117.624268	151.251572	-771.587769	2145.732666	187.519409	-738.797058	2131.927490	317.635010	-738.434509	2061.038330	446.380615	-501.856506	1963.566040	307.950012	-534.040710	1769.666138	332.082214	-547.590454	1673.769897	261.643402	-551.315186	1586.771484	251.723526	-528.680115	1639.731079	121.304123	-730.606018	2152.278076	-12.152046	-703.557312	2158.546631	-153.927765	-449.313629	2179.498291	-136.965118	-399.452576	1941.812134	-76.822594	-412.126038	1853.655884	-144.536163	-429.394226	1938.723022	-50.704845	-440.442902	1892.999390
231	8000211.000000	142.129333	-240.752625	2123.308594	153.789520	-427.632385	2118.531494	162.487656	-576.961182	2111.641113	146.586090	-800.204834	2154.806641	183.372070	-767.660767	2139.451660	314.302734	-773.225586	2066.301514	414.830322	-554.280334	1904.653809	284.147308	-594.125366	1703.087524	338.546204	-541.636047	1635.960938	260.630066	-541.841003	1553.507690	263.805420	-539.094360	1570.043579	115.784477	-758.629822	2157.951416	-19.013502	-728.752075	2158.299072	-169.559479	-474.349091	2160.004395	-153.733215	-513.972046	1917.136475	-139.347595	-482.991608	1813.782715	-182.634888	-522.851318	1908.500122	-138.696457	-486.735596	1800.085205
